<mxfile host="app.diagrams.net" agent="Mozilla/5.0 (Windows NT 10.0; Win64; x64) AppleWebKit/537.36 (KHTML, like Gecko) Chrome/138.0.0.0 Safari/537.36" version="26.1.3">
  <diagram id="C5RBs43oDa-KdzZeNtuy" name="Page-1">
    <mxGraphModel dx="1827" dy="481" grid="1" gridSize="10" guides="1" tooltips="1" connect="1" arrows="1" fold="1" page="1" pageScale="1" pageWidth="827" pageHeight="1169" math="0" shadow="0">
      <root>
        <mxCell id="WIyWlLk6GJQsqaUBKTNV-0" />
        <mxCell id="WIyWlLk6GJQsqaUBKTNV-1" parent="WIyWlLk6GJQsqaUBKTNV-0" />
        <mxCell id="deosc8CdUkbicf_GpzMJ-0" value="&lt;font style=&quot;font-size: 40px;&quot;&gt;start&lt;/font&gt;" style="ellipse;whiteSpace=wrap;html=1;" vertex="1" parent="WIyWlLk6GJQsqaUBKTNV-1">
          <mxGeometry x="260" width="120" height="80" as="geometry" />
        </mxCell>
        <mxCell id="deosc8CdUkbicf_GpzMJ-1" value="&lt;font style=&quot;font-size: 30px;&quot;&gt;decode&lt;/font&gt;" style="rounded=0;whiteSpace=wrap;html=1;" vertex="1" parent="WIyWlLk6GJQsqaUBKTNV-1">
          <mxGeometry x="270" y="210" width="120" height="60" as="geometry" />
        </mxCell>
        <mxCell id="deosc8CdUkbicf_GpzMJ-2" value="&lt;font style=&quot;font-size: 30px;&quot;&gt;get&lt;/font&gt;" style="rounded=0;whiteSpace=wrap;html=1;" vertex="1" parent="WIyWlLk6GJQsqaUBKTNV-1">
          <mxGeometry x="270" y="120" width="120" height="60" as="geometry" />
        </mxCell>
        <mxCell id="deosc8CdUkbicf_GpzMJ-43" value="" style="edgeStyle=orthogonalEdgeStyle;rounded=0;orthogonalLoop=1;jettySize=auto;html=1;" edge="1" parent="WIyWlLk6GJQsqaUBKTNV-1" source="deosc8CdUkbicf_GpzMJ-3" target="deosc8CdUkbicf_GpzMJ-41">
          <mxGeometry relative="1" as="geometry" />
        </mxCell>
        <mxCell id="deosc8CdUkbicf_GpzMJ-3" value="" style="rhombus;whiteSpace=wrap;html=1;" vertex="1" parent="WIyWlLk6GJQsqaUBKTNV-1">
          <mxGeometry x="290" y="630" width="80" height="80" as="geometry" />
        </mxCell>
        <mxCell id="deosc8CdUkbicf_GpzMJ-42" value="" style="edgeStyle=orthogonalEdgeStyle;rounded=0;orthogonalLoop=1;jettySize=auto;html=1;" edge="1" parent="WIyWlLk6GJQsqaUBKTNV-1" source="deosc8CdUkbicf_GpzMJ-4" target="deosc8CdUkbicf_GpzMJ-40">
          <mxGeometry relative="1" as="geometry" />
        </mxCell>
        <mxCell id="deosc8CdUkbicf_GpzMJ-4" value="" style="rhombus;whiteSpace=wrap;html=1;" vertex="1" parent="WIyWlLk6GJQsqaUBKTNV-1">
          <mxGeometry x="290" y="520" width="80" height="80" as="geometry" />
        </mxCell>
        <mxCell id="deosc8CdUkbicf_GpzMJ-45" value="" style="edgeStyle=orthogonalEdgeStyle;rounded=0;orthogonalLoop=1;jettySize=auto;html=1;" edge="1" parent="WIyWlLk6GJQsqaUBKTNV-1" source="deosc8CdUkbicf_GpzMJ-5" target="deosc8CdUkbicf_GpzMJ-44">
          <mxGeometry relative="1" as="geometry" />
        </mxCell>
        <mxCell id="deosc8CdUkbicf_GpzMJ-5" value="" style="rhombus;whiteSpace=wrap;html=1;" vertex="1" parent="WIyWlLk6GJQsqaUBKTNV-1">
          <mxGeometry x="290" y="410" width="80" height="80" as="geometry" />
        </mxCell>
        <mxCell id="deosc8CdUkbicf_GpzMJ-38" style="edgeStyle=orthogonalEdgeStyle;rounded=0;orthogonalLoop=1;jettySize=auto;html=1;" edge="1" parent="WIyWlLk6GJQsqaUBKTNV-1" source="deosc8CdUkbicf_GpzMJ-6" target="deosc8CdUkbicf_GpzMJ-39">
          <mxGeometry relative="1" as="geometry">
            <mxPoint x="250" y="340" as="targetPoint" />
          </mxGeometry>
        </mxCell>
        <mxCell id="deosc8CdUkbicf_GpzMJ-6" value="" style="rhombus;whiteSpace=wrap;html=1;" vertex="1" parent="WIyWlLk6GJQsqaUBKTNV-1">
          <mxGeometry x="290" y="300" width="80" height="80" as="geometry" />
        </mxCell>
        <mxCell id="deosc8CdUkbicf_GpzMJ-8" value="&lt;font style=&quot;font-size: 30px;&quot;&gt;fetch inbox&lt;/font&gt;" style="rounded=0;whiteSpace=wrap;html=1;" vertex="1" parent="WIyWlLk6GJQsqaUBKTNV-1">
          <mxGeometry x="270" y="740" width="120" height="60" as="geometry" />
        </mxCell>
        <mxCell id="deosc8CdUkbicf_GpzMJ-9" value="&lt;font style=&quot;font-size: 30px;&quot;&gt;forward&lt;/font&gt;" style="rounded=0;whiteSpace=wrap;html=1;" vertex="1" parent="WIyWlLk6GJQsqaUBKTNV-1">
          <mxGeometry x="270" y="850" width="120" height="60" as="geometry" />
        </mxCell>
        <mxCell id="deosc8CdUkbicf_GpzMJ-14" value="&lt;font style=&quot;font-size: 40px;&quot;&gt;end&lt;/font&gt;" style="ellipse;whiteSpace=wrap;html=1;" vertex="1" parent="WIyWlLk6GJQsqaUBKTNV-1">
          <mxGeometry x="270" y="970" width="120" height="80" as="geometry" />
        </mxCell>
        <mxCell id="deosc8CdUkbicf_GpzMJ-18" value="" style="endArrow=classic;html=1;rounded=0;" edge="1" parent="WIyWlLk6GJQsqaUBKTNV-1">
          <mxGeometry width="50" height="50" relative="1" as="geometry">
            <mxPoint x="320" y="70" as="sourcePoint" />
            <mxPoint x="320" y="120" as="targetPoint" />
          </mxGeometry>
        </mxCell>
        <mxCell id="deosc8CdUkbicf_GpzMJ-19" value="" style="endArrow=classic;html=1;rounded=0;exitX=0.419;exitY=1.044;exitDx=0;exitDy=0;exitPerimeter=0;entryX=0.436;entryY=0.067;entryDx=0;entryDy=0;entryPerimeter=0;" edge="1" parent="WIyWlLk6GJQsqaUBKTNV-1" source="deosc8CdUkbicf_GpzMJ-2" target="deosc8CdUkbicf_GpzMJ-1">
          <mxGeometry width="50" height="50" relative="1" as="geometry">
            <mxPoint x="290" y="380" as="sourcePoint" />
            <mxPoint x="340" y="330" as="targetPoint" />
          </mxGeometry>
        </mxCell>
        <mxCell id="deosc8CdUkbicf_GpzMJ-20" value="" style="endArrow=classic;html=1;rounded=0;exitX=0.5;exitY=1;exitDx=0;exitDy=0;" edge="1" parent="WIyWlLk6GJQsqaUBKTNV-1" source="deosc8CdUkbicf_GpzMJ-1" target="deosc8CdUkbicf_GpzMJ-6">
          <mxGeometry width="50" height="50" relative="1" as="geometry">
            <mxPoint x="290" y="380" as="sourcePoint" />
            <mxPoint x="330" y="300" as="targetPoint" />
          </mxGeometry>
        </mxCell>
        <mxCell id="deosc8CdUkbicf_GpzMJ-21" value="" style="endArrow=classic;html=1;rounded=0;exitX=0.5;exitY=1;exitDx=0;exitDy=0;" edge="1" parent="WIyWlLk6GJQsqaUBKTNV-1" source="deosc8CdUkbicf_GpzMJ-6" target="deosc8CdUkbicf_GpzMJ-5">
          <mxGeometry width="50" height="50" relative="1" as="geometry">
            <mxPoint x="290" y="380" as="sourcePoint" />
            <mxPoint x="340" y="330" as="targetPoint" />
          </mxGeometry>
        </mxCell>
        <mxCell id="deosc8CdUkbicf_GpzMJ-22" value="" style="endArrow=classic;html=1;rounded=0;entryX=0.5;entryY=0;entryDx=0;entryDy=0;" edge="1" parent="WIyWlLk6GJQsqaUBKTNV-1" source="deosc8CdUkbicf_GpzMJ-5" target="deosc8CdUkbicf_GpzMJ-4">
          <mxGeometry width="50" height="50" relative="1" as="geometry">
            <mxPoint x="290" y="570" as="sourcePoint" />
            <mxPoint x="340" y="520" as="targetPoint" />
          </mxGeometry>
        </mxCell>
        <mxCell id="deosc8CdUkbicf_GpzMJ-23" value="" style="endArrow=classic;html=1;rounded=0;" edge="1" parent="WIyWlLk6GJQsqaUBKTNV-1" source="deosc8CdUkbicf_GpzMJ-4" target="deosc8CdUkbicf_GpzMJ-3">
          <mxGeometry width="50" height="50" relative="1" as="geometry">
            <mxPoint x="290" y="740" as="sourcePoint" />
            <mxPoint x="340" y="690" as="targetPoint" />
          </mxGeometry>
        </mxCell>
        <mxCell id="deosc8CdUkbicf_GpzMJ-24" value="" style="endArrow=classic;html=1;rounded=0;" edge="1" parent="WIyWlLk6GJQsqaUBKTNV-1" source="deosc8CdUkbicf_GpzMJ-3" target="deosc8CdUkbicf_GpzMJ-8">
          <mxGeometry width="50" height="50" relative="1" as="geometry">
            <mxPoint x="290" y="890" as="sourcePoint" />
            <mxPoint x="340" y="840" as="targetPoint" />
          </mxGeometry>
        </mxCell>
        <mxCell id="deosc8CdUkbicf_GpzMJ-25" value="" style="endArrow=classic;html=1;rounded=0;exitX=0.5;exitY=1;exitDx=0;exitDy=0;" edge="1" parent="WIyWlLk6GJQsqaUBKTNV-1" source="deosc8CdUkbicf_GpzMJ-8" target="deosc8CdUkbicf_GpzMJ-9">
          <mxGeometry width="50" height="50" relative="1" as="geometry">
            <mxPoint x="290" y="1020" as="sourcePoint" />
            <mxPoint x="340" y="970" as="targetPoint" />
          </mxGeometry>
        </mxCell>
        <mxCell id="deosc8CdUkbicf_GpzMJ-26" value="" style="endArrow=classic;html=1;rounded=0;" edge="1" parent="WIyWlLk6GJQsqaUBKTNV-1" source="deosc8CdUkbicf_GpzMJ-9" target="deosc8CdUkbicf_GpzMJ-14">
          <mxGeometry width="50" height="50" relative="1" as="geometry">
            <mxPoint x="290" y="1020" as="sourcePoint" />
            <mxPoint x="340" y="970" as="targetPoint" />
          </mxGeometry>
        </mxCell>
        <mxCell id="deosc8CdUkbicf_GpzMJ-27" value="&lt;font style=&quot;font-size: 20px;&quot;&gt;check sum&lt;/font&gt;" style="text;html=1;align=center;verticalAlign=middle;whiteSpace=wrap;rounded=0;" vertex="1" parent="WIyWlLk6GJQsqaUBKTNV-1">
          <mxGeometry x="370" y="325" width="70" height="30" as="geometry" />
        </mxCell>
        <mxCell id="deosc8CdUkbicf_GpzMJ-28" value="&lt;font style=&quot;font-size: 20px;&quot;&gt;ack bucket&lt;/font&gt;&lt;div&gt;&lt;font style=&quot;font-size: 20px;&quot;&gt;&lt;br&gt;&lt;/font&gt;&lt;/div&gt;" style="text;html=1;align=center;verticalAlign=middle;whiteSpace=wrap;rounded=0;" vertex="1" parent="WIyWlLk6GJQsqaUBKTNV-1">
          <mxGeometry x="375" y="420" width="60" height="30" as="geometry" />
        </mxCell>
        <mxCell id="deosc8CdUkbicf_GpzMJ-29" value="" style="shape=cylinder3;whiteSpace=wrap;html=1;boundedLbl=1;backgroundOutline=1;size=15;" vertex="1" parent="WIyWlLk6GJQsqaUBKTNV-1">
          <mxGeometry x="450" y="510" width="40" height="60" as="geometry" />
        </mxCell>
        <mxCell id="deosc8CdUkbicf_GpzMJ-30" value="" style="shape=cylinder3;whiteSpace=wrap;html=1;boundedLbl=1;backgroundOutline=1;size=15;" vertex="1" parent="WIyWlLk6GJQsqaUBKTNV-1">
          <mxGeometry x="450" y="390" width="40" height="60" as="geometry" />
        </mxCell>
        <mxCell id="deosc8CdUkbicf_GpzMJ-31" value="&lt;font style=&quot;font-size: 20px;&quot;&gt;cache bucket&lt;/font&gt;&lt;div&gt;&lt;font style=&quot;font-size: 20px;&quot;&gt;&lt;br&gt;&lt;/font&gt;&lt;/div&gt;" style="text;html=1;align=center;verticalAlign=middle;whiteSpace=wrap;rounded=0;" vertex="1" parent="WIyWlLk6GJQsqaUBKTNV-1">
          <mxGeometry x="380" y="530" width="60" height="30" as="geometry" />
        </mxCell>
        <mxCell id="deosc8CdUkbicf_GpzMJ-32" value="&lt;font style=&quot;font-size: 20px;&quot;&gt;relation chk&lt;/font&gt;" style="text;html=1;align=center;verticalAlign=middle;whiteSpace=wrap;rounded=0;" vertex="1" parent="WIyWlLk6GJQsqaUBKTNV-1">
          <mxGeometry x="380" y="640" width="60" height="30" as="geometry" />
        </mxCell>
        <mxCell id="deosc8CdUkbicf_GpzMJ-33" value="" style="endArrow=classic;html=1;rounded=0;" edge="1" parent="WIyWlLk6GJQsqaUBKTNV-1">
          <mxGeometry relative="1" as="geometry">
            <mxPoint x="400" y="879.58" as="sourcePoint" />
            <mxPoint x="490" y="860" as="targetPoint" />
            <Array as="points" />
          </mxGeometry>
        </mxCell>
        <mxCell id="deosc8CdUkbicf_GpzMJ-34" value="" style="shape=message;html=1;outlineConnect=0;" vertex="1" parent="deosc8CdUkbicf_GpzMJ-33">
          <mxGeometry width="20" height="14" relative="1" as="geometry">
            <mxPoint x="-10" y="-7" as="offset" />
          </mxGeometry>
        </mxCell>
        <mxCell id="deosc8CdUkbicf_GpzMJ-35" value="" style="endArrow=classic;html=1;rounded=0;" edge="1" parent="WIyWlLk6GJQsqaUBKTNV-1">
          <mxGeometry relative="1" as="geometry">
            <mxPoint x="400" y="890" as="sourcePoint" />
            <mxPoint x="490" y="910" as="targetPoint" />
          </mxGeometry>
        </mxCell>
        <mxCell id="deosc8CdUkbicf_GpzMJ-36" value="" style="shape=message;html=1;outlineConnect=0;" vertex="1" parent="deosc8CdUkbicf_GpzMJ-35">
          <mxGeometry width="20" height="14" relative="1" as="geometry">
            <mxPoint x="-10" y="-7" as="offset" />
          </mxGeometry>
        </mxCell>
        <mxCell id="deosc8CdUkbicf_GpzMJ-37" value="" style="shape=callout;whiteSpace=wrap;html=1;perimeter=calloutPerimeter;size=30;position=0.4;base=12;" vertex="1" parent="WIyWlLk6GJQsqaUBKTNV-1">
          <mxGeometry x="414" y="750" width="36" height="50" as="geometry" />
        </mxCell>
        <mxCell id="deosc8CdUkbicf_GpzMJ-39" value="&lt;font style=&quot;font-size: 40px;&quot;&gt;end&lt;/font&gt;" style="ellipse;whiteSpace=wrap;html=1;" vertex="1" parent="WIyWlLk6GJQsqaUBKTNV-1">
          <mxGeometry x="120" y="300" width="120" height="80" as="geometry" />
        </mxCell>
        <mxCell id="deosc8CdUkbicf_GpzMJ-40" value="&lt;font style=&quot;font-size: 40px;&quot;&gt;end&lt;/font&gt;" style="ellipse;whiteSpace=wrap;html=1;" vertex="1" parent="WIyWlLk6GJQsqaUBKTNV-1">
          <mxGeometry x="120" y="520" width="120" height="80" as="geometry" />
        </mxCell>
        <mxCell id="deosc8CdUkbicf_GpzMJ-41" value="&lt;font style=&quot;font-size: 40px;&quot;&gt;end&lt;/font&gt;" style="ellipse;whiteSpace=wrap;html=1;" vertex="1" parent="WIyWlLk6GJQsqaUBKTNV-1">
          <mxGeometry x="120" y="630" width="120" height="80" as="geometry" />
        </mxCell>
        <mxCell id="deosc8CdUkbicf_GpzMJ-47" value="" style="edgeStyle=orthogonalEdgeStyle;rounded=0;orthogonalLoop=1;jettySize=auto;html=1;" edge="1" parent="WIyWlLk6GJQsqaUBKTNV-1" source="deosc8CdUkbicf_GpzMJ-44" target="deosc8CdUkbicf_GpzMJ-46">
          <mxGeometry relative="1" as="geometry" />
        </mxCell>
        <mxCell id="deosc8CdUkbicf_GpzMJ-48" style="edgeStyle=orthogonalEdgeStyle;rounded=0;orthogonalLoop=1;jettySize=auto;html=1;" edge="1" parent="WIyWlLk6GJQsqaUBKTNV-1" source="deosc8CdUkbicf_GpzMJ-44" target="deosc8CdUkbicf_GpzMJ-29">
          <mxGeometry relative="1" as="geometry">
            <mxPoint x="509.98" y="550" as="targetPoint" />
            <mxPoint x="140.00439024390263" y="490" as="sourcePoint" />
            <Array as="points">
              <mxPoint x="100" y="1090" />
              <mxPoint x="610" y="1090" />
              <mxPoint x="610" y="550" />
            </Array>
          </mxGeometry>
        </mxCell>
        <mxCell id="deosc8CdUkbicf_GpzMJ-44" value="&lt;font style=&quot;font-size: 30px;&quot;&gt;confirm&lt;/font&gt;" style="whiteSpace=wrap;html=1;" vertex="1" parent="WIyWlLk6GJQsqaUBKTNV-1">
          <mxGeometry x="40" y="400" width="120" height="60" as="geometry" />
        </mxCell>
        <mxCell id="deosc8CdUkbicf_GpzMJ-46" value="&lt;font style=&quot;font-size: 40px;&quot;&gt;end&lt;/font&gt;" style="ellipse;whiteSpace=wrap;html=1;" vertex="1" parent="WIyWlLk6GJQsqaUBKTNV-1">
          <mxGeometry x="-120" y="390" width="120" height="80" as="geometry" />
        </mxCell>
        <mxCell id="deosc8CdUkbicf_GpzMJ-53" value="" style="endArrow=classic;html=1;rounded=0;" edge="1" parent="WIyWlLk6GJQsqaUBKTNV-1">
          <mxGeometry width="50" height="50" relative="1" as="geometry">
            <mxPoint x="330" y="820" as="sourcePoint" />
            <mxPoint x="610" y="820" as="targetPoint" />
          </mxGeometry>
        </mxCell>
        <mxCell id="deosc8CdUkbicf_GpzMJ-54" value="&lt;font style=&quot;font-size: 20px;&quot;&gt;add to cache&lt;/font&gt;" style="text;html=1;align=center;verticalAlign=middle;whiteSpace=wrap;rounded=0;rotation=270;" vertex="1" parent="WIyWlLk6GJQsqaUBKTNV-1">
          <mxGeometry x="-120" y="700" width="360" height="30" as="geometry" />
        </mxCell>
        <mxCell id="deosc8CdUkbicf_GpzMJ-55" value="&lt;font style=&quot;font-size: 20px;&quot;&gt;add to cache&lt;/font&gt;" style="text;html=1;align=center;verticalAlign=middle;whiteSpace=wrap;rounded=0;rotation=0;" vertex="1" parent="WIyWlLk6GJQsqaUBKTNV-1">
          <mxGeometry x="355.00000000000006" y="780" width="360" height="30" as="geometry" />
        </mxCell>
        <mxCell id="deosc8CdUkbicf_GpzMJ-63" value="" style="edgeStyle=orthogonalEdgeStyle;rounded=0;orthogonalLoop=1;jettySize=auto;html=1;" edge="1" parent="WIyWlLk6GJQsqaUBKTNV-1" source="deosc8CdUkbicf_GpzMJ-56" target="deosc8CdUkbicf_GpzMJ-58">
          <mxGeometry relative="1" as="geometry">
            <Array as="points">
              <mxPoint x="850" y="343" />
              <mxPoint x="840" y="343" />
            </Array>
          </mxGeometry>
        </mxCell>
        <mxCell id="deosc8CdUkbicf_GpzMJ-56" value="&lt;div&gt;&lt;font style=&quot;font-size: 30px;&quot;&gt;set&lt;/font&gt;&lt;/div&gt;" style="rounded=0;whiteSpace=wrap;html=1;" vertex="1" parent="WIyWlLk6GJQsqaUBKTNV-1">
          <mxGeometry x="780" y="225" width="120" height="60" as="geometry" />
        </mxCell>
        <mxCell id="deosc8CdUkbicf_GpzMJ-62" value="" style="edgeStyle=orthogonalEdgeStyle;rounded=0;orthogonalLoop=1;jettySize=auto;html=1;" edge="1" parent="WIyWlLk6GJQsqaUBKTNV-1" source="deosc8CdUkbicf_GpzMJ-57" target="deosc8CdUkbicf_GpzMJ-58">
          <mxGeometry relative="1" as="geometry" />
        </mxCell>
        <mxCell id="deosc8CdUkbicf_GpzMJ-57" value="&lt;font style=&quot;font-size: 30px;&quot;&gt;encode&lt;/font&gt;" style="rounded=0;whiteSpace=wrap;html=1;" vertex="1" parent="WIyWlLk6GJQsqaUBKTNV-1">
          <mxGeometry x="780" y="315" width="120" height="60" as="geometry" />
        </mxCell>
        <mxCell id="deosc8CdUkbicf_GpzMJ-61" value="" style="edgeStyle=orthogonalEdgeStyle;rounded=0;orthogonalLoop=1;jettySize=auto;html=1;" edge="1" parent="WIyWlLk6GJQsqaUBKTNV-1" source="deosc8CdUkbicf_GpzMJ-58" target="deosc8CdUkbicf_GpzMJ-60">
          <mxGeometry relative="1" as="geometry" />
        </mxCell>
        <mxCell id="deosc8CdUkbicf_GpzMJ-58" value="&lt;font style=&quot;font-size: 30px;&quot;&gt;send&lt;/font&gt;" style="rounded=0;whiteSpace=wrap;html=1;" vertex="1" parent="WIyWlLk6GJQsqaUBKTNV-1">
          <mxGeometry x="780" y="400" width="120" height="60" as="geometry" />
        </mxCell>
        <mxCell id="deosc8CdUkbicf_GpzMJ-60" value="&lt;font style=&quot;font-size: 40px;&quot;&gt;end&lt;/font&gt;" style="ellipse;whiteSpace=wrap;html=1;" vertex="1" parent="WIyWlLk6GJQsqaUBKTNV-1">
          <mxGeometry x="780" y="505" width="120" height="80" as="geometry" />
        </mxCell>
        <mxCell id="deosc8CdUkbicf_GpzMJ-64" value="" style="endArrow=classic;html=1;rounded=0;" edge="1" parent="WIyWlLk6GJQsqaUBKTNV-1" source="deosc8CdUkbicf_GpzMJ-58">
          <mxGeometry width="50" height="50" relative="1" as="geometry">
            <mxPoint x="570" y="390" as="sourcePoint" />
            <mxPoint x="490" y="430" as="targetPoint" />
            <Array as="points" />
          </mxGeometry>
        </mxCell>
        <mxCell id="deosc8CdUkbicf_GpzMJ-65" value="&lt;font style=&quot;font-size: 20px;&quot;&gt;add to ACK&lt;/font&gt;" style="text;html=1;align=center;verticalAlign=middle;whiteSpace=wrap;rounded=0;rotation=0;" vertex="1" parent="WIyWlLk6GJQsqaUBKTNV-1">
          <mxGeometry x="467" y="390" width="360" height="30" as="geometry" />
        </mxCell>
        <mxCell id="deosc8CdUkbicf_GpzMJ-66" value="" style="endArrow=classic;html=1;rounded=0;" edge="1" parent="WIyWlLk6GJQsqaUBKTNV-1">
          <mxGeometry relative="1" as="geometry">
            <mxPoint x="900" y="434.52" as="sourcePoint" />
            <mxPoint x="990" y="460" as="targetPoint" />
          </mxGeometry>
        </mxCell>
        <mxCell id="deosc8CdUkbicf_GpzMJ-67" value="" style="shape=message;html=1;outlineConnect=0;" vertex="1" parent="deosc8CdUkbicf_GpzMJ-66">
          <mxGeometry width="20" height="14" relative="1" as="geometry">
            <mxPoint x="-10" y="-7" as="offset" />
          </mxGeometry>
        </mxCell>
        <mxCell id="deosc8CdUkbicf_GpzMJ-68" value="" style="endArrow=classic;html=1;rounded=0;" edge="1" parent="WIyWlLk6GJQsqaUBKTNV-1">
          <mxGeometry relative="1" as="geometry">
            <mxPoint x="900" y="420" as="sourcePoint" />
            <mxPoint x="990" y="400" as="targetPoint" />
          </mxGeometry>
        </mxCell>
        <mxCell id="deosc8CdUkbicf_GpzMJ-69" value="" style="shape=message;html=1;outlineConnect=0;" vertex="1" parent="deosc8CdUkbicf_GpzMJ-68">
          <mxGeometry width="20" height="14" relative="1" as="geometry">
            <mxPoint x="-10" y="-7" as="offset" />
          </mxGeometry>
        </mxCell>
      </root>
    </mxGraphModel>
  </diagram>
</mxfile>
